# File created by Blade
# Date/Time:  Tue Jan 27 17:16:36 2015
#---------------------------------------------------------
:version 1.10
:name HOM
:units
  mass 1.0
  length 1.000000
  angle deg
:documentation
     Acclaim Skeleton File
:root
   axis xyz
   order TX TY TZ RX RY RZ
   position 0.000000 0.000000 0.000000
   orientation 0 0 0
:bonedata
   begin
      id 1
      name Spine_dum
      direction 0.000000 1.000000 0.000000
      length 7.539951
      axis 0.0 0.0 0.0 xyz
   end
   begin
      id 2
      name LeftUpLeg_dum
      direction 1.000000 0.000000 0.000000
      length 3.345476
      axis 0.0 0.0 0.0 xyz
   end
   begin
      id 3
      name RightUpLeg_dum
      direction -1.000000 0.000000 0.000000
      length 3.345476
      axis 0.0 0.0 0.0 xyz
   end
   begin
      id 4
      name Spine
      direction 0.000000 1.000000 0.000000
      length 0.000000
      axis 0.0 0.0 0.0 xyz
      dof rx ry rz
   end
   begin
      id 5
      name Spine_dum1
      direction 0.000000 1.000000 0.000000
      length 15.093809
      axis 0.0 0.0 0.0 xyz
   end
   begin
      id 6
      name Spine_dum2
      direction 0.000000 1.000000 0.000000
      length 9.738928
      axis 0.0 0.0 0.0 xyz
   end
   begin
      id 7
      name Spine_dum3
      direction 0.000000 1.000000 0.000000
      length 9.738928
      axis 0.0 0.0 0.0 xyz
   end
   begin
      id 8
      name Head
      direction 0.000000 1.000000 0.000000
      length 4.527550
      axis 0.0 0.0 0.0 xyz
      dof rx ry rz
   end
   begin
      id 9
      name LeftShoulder
      direction 1.000000 0.000000 0.000000
      length 7.084015
      axis 0.0 0.0 -90.0 xyz
      dof rx ry rz
   end
   begin
      id 10
      name LeftArm
      direction 1.000000 0.000000 0.000000
      length 10.259319
      axis 0.0 0.0 -90.0 xyz
      dof rx ry rz
   end
   begin
      id 11
      name LeftForeArm
      direction 1.000000 0.000000 0.000000
      length 9.896984
      axis 0.0 0.0 -90.0 xyz
      dof ry rz rx
   end
   begin
      id 12
      name LeftHand
      direction 0.000000 0.000000 0.000000
      length 0.000000
      axis 0.0 0.0 -90.0 xyz
      dof rx ry rz
   end
   begin
      id 13
      name LeftHand_dum1
      direction 0.000000 0.000000 0.000000
      length 0.000000
      axis 0.0 0.0 -90.0 xyz
   end
   begin
      id 14
      name LeftHand_dum2
      direction 1.000000 0.000000 0.000000
      length 3.937000
      axis 0.0 0.0 -90.0 xyz
   end
   begin
      id 15
      name LeftHandThumb1
      direction 0.000000 0.000000 1.000000
      length 3.937000
      axis 0.0 0.0 -90.0 xyz
      dof rx rz ry
   end
   begin
      id 16
      name RightShoulder
      direction -1.000000 0.000000 0.000000
      length 7.084015
      axis 0.0 0.0 90.0 xyz
      dof rx ry rz
   end
   begin
      id 17
      name RightArm
      direction -1.000000 0.000000 0.000000
      length 10.259319
      axis 0.0 0.0 90.0 xyz
      dof rx ry rz
   end
   begin
      id 18
      name RightForeArm
      direction -1.000000 0.000000 0.000000
      length 9.896984
      axis 0.0 0.0 90.0 xyz
      dof ry rz rx
   end
   begin
      id 19
      name RightHand
      direction 0.000000 0.000000 0.000000
      length 0.000000
      axis 0.0 0.0 90.0 xyz
      dof rx ry rz
   end
   begin
      id 20
      name RightHand_dum1
      direction 0.000000 0.000000 0.000000
      length 0.000000
      axis 0.0 0.0 90.0 xyz
   end
   begin
      id 21
      name RightHand_dum2
      direction -1.000000 0.000000 0.000000
      length 3.937000
      axis 0.0 0.0 90.0 xyz
   end
   begin
      id 22
      name RightHandThumb1
      direction 0.000000 0.000000 1.000000
      length 3.937000
      axis 0.0 0.0 90.0 xyz
      dof rx rz ry
   end
   begin
      id 23
      name LeftUpLeg
      direction 0.000000 -1.000000 0.000000
      length 19.114733
      axis 0.0 0.0 0.0 xyz
      dof rx ry rz
   end
   begin
      id 24
      name LeftLeg
      direction 0.000000 -1.000000 0.000000
      length 16.045604
      axis 0.0 0.0 0.0 xyz
      dof rx ry rz
   end
   begin
      id 25
      name LeftFoot
      direction 0.000000 -0.258819 0.965926
      length 5.543155
      axis 15.0 0.0 0.0 xyz
      dof rx ry rz
   end
   begin
      id 26
      name LeftToeBase
      direction 0.000000 0.000000 1.000000
      length 2.952750
      axis 0.0 0.0 0.0 xyz
      dof rx ry rz
   end
   begin
      id 27
      name RightUpLeg
      direction 0.000000 -1.000000 0.000000
      length 19.114733
      axis 0.0 0.0 0.0 xyz
      dof rx ry rz
   end
   begin
      id 28
      name RightLeg
      direction 0.000000 -1.000000 0.000000
      length 16.045604
      axis 0.0 0.0 0.0 xyz
      dof rx ry rz
   end
   begin
      id 29
      name RightFoot
      direction 0.000000 -0.258819 0.965926
      length 5.543155
      axis 15.0 0.0 0.0 xyz
      dof rx ry rz
   end
   begin
      id 30
      name RightToeBase
      direction 0.000000 0.000000 1.000000
      length 2.952750
      axis 0.0 0.0 0.0 xyz
      dof rx ry rz
   end
:hierarchy
   begin
      root Spine_dum LeftUpLeg_dum RightUpLeg_dum
      Spine_dum Spine
      LeftUpLeg_dum LeftUpLeg
      RightUpLeg_dum RightUpLeg
      Spine Spine_dum1 Spine_dum2 Spine_dum3
      Spine_dum1 Head
      Spine_dum2 LeftShoulder
      Spine_dum3 RightShoulder
      LeftShoulder LeftArm
      LeftArm LeftForeArm
      LeftForeArm LeftHand
      LeftHand LeftHand_dum1 LeftHand_dum2
      LeftHand_dum1 LeftHandThumb1
      RightShoulder RightArm
      RightArm RightForeArm
      RightForeArm RightHand
      RightHand RightHand_dum1 RightHand_dum2
      RightHand_dum1 RightHandThumb1
      LeftUpLeg LeftLeg
      LeftLeg LeftFoot
      LeftFoot LeftToeBase
      RightUpLeg RightLeg
      RightLeg RightFoot
      RightFoot RightToeBase
   end

# File created by Blade
# Date/Time:  Tue Jan 27 17:16:27 2015
# Frame Rate: 120.000 fps
#------------------------------------------------------
:FULLY-SPECIFIED
:DEGREES
2068
root -5.054059 36.171461 1.464369 10.275757 44.100183 10.364055
Spine 10.434942 -0.802080 -7.195235
Head -6.258713 0.692220 4.361805
LeftShoulder 6.710184 -19.859347 9.948829
LeftArm 15.564345 -15.313102 -40.745380
LeftForeArm 5.943625 0.000000 61.508314
LeftHand -13.756089 -0.000000 49.974363
LeftHandThumb1 -26.253704 0.000000 33.147579
RightShoulder -1.311062 -13.582166 0.039121
RightArm 15.987022 -13.728623 48.702352
RightForeArm -173.133641 -0.000000 30.896590
RightHand 0.085063 -0.000000 3.846478
RightHandThumb1 -24.326973 -0.000000 -32.862282
LeftUpLeg -87.426318 40.663615 -12.924148
LeftLeg 103.784342 -0.000000 -0.000000
LeftFoot -9.611086 5.785371 -29.406737
LeftToeBase 15.685770 -0.000000 -0.000000
RightUpLeg -19.353878 -22.730020 5.943379
RightLeg 29.409196 -0.000000 -0.000000
RightFoot -24.157274 -23.192666 6.679535
RightToeBase 1.000893 -0.000000 -0.000000
2069
root -5.060356 36.172402 1.452081 10.318624 43.974707 10.424400
Spine 10.403964 -0.732069 -7.200762
Head -6.286191 0.669246 4.249798
LeftShoulder 6.692313 -19.797976 9.899847
LeftArm 15.640613 -15.373268 -40.759085
LeftForeArm 5.988630 -0.000000 61.425668
LeftHand -13.786995 -0.000000 49.901134
LeftHandThumb1 -26.253704 0.000000 33.147579
RightShoulder -1.301846 -13.576514 -0.071076
RightArm 16.028721 -13.788090 48.589872
RightForeArm -173.084872 -0.000000 30.896397
RightHand 0.122162 -0.000000 4.137513
RightHandThumb1 -24.326973 -0.000000 -32.862282
LeftUpLeg -87.238987 40.704997 -12.829315
LeftLeg 103.388379 -0.000000 -0.000000
LeftFoot -9.870761 5.779156 -29.412441
LeftToeBase 15.518231 -0.000000 -0.000000
RightUpLeg -19.390685 -22.748451 5.887425
RightLeg 29.440717 -0.000000 -0.000000
RightFoot -24.138960 -23.054330 6.597254
RightToeBase 1.025776 -0.000000 -0.000000
2070
root -5.072432 36.174990 1.432354 10.427008 43.856818 10.478004
Spine 10.298050 -0.666219 -7.174120
Head -6.293857 0.605535 4.058025
LeftShoulder 6.698003 -19.765138 9.805599
LeftArm 15.714524 -15.431008 -40.759712
LeftForeArm 6.022216 -0.000000 61.286431
LeftHand -13.778445 -0.000000 49.779356
LeftHandThumb1 -26.253704 0.000000 33.147579
RightShoulder -1.285998 -13.568743 -0.191746
RightArm 16.037055 -13.746742 48.521749
RightForeArm -173.072136 0.000000 30.856604
RightHand 0.108889 0.000000 3.921110
RightHandThumb1 -24.326973 -0.000000 -32.862282
LeftUpLeg -87.128191 40.699476 -12.796770
LeftLeg 102.989595 -0.000000 -0.000000
LeftFoot -10.157112 5.807041 -29.439671
LeftToeBase 14.745492 -0.000000 -0.000000
RightUpLeg -19.511261 -22.751873 5.880843
RightLeg 29.423108 -0.000000 -0.000000
RightFoot -24.127249 -22.966154 6.654086
RightToeBase 0.964950 -0.000000 -0.000000
2071
root -5.078825 36.177754 1.419042 10.490874 43.751128 10.537022
Spine 10.239167 -0.610878 -7.152961
Head -6.328703 0.573907 3.886718
LeftShoulder 6.685767 -19.769991 9.737086
LeftArm 15.754840 -15.486304 -40.800675
LeftForeArm 6.019281 -0.000000 61.152979
LeftHand -13.764109 -0.000000 49.513826
LeftHandThumb1 -26.253704 0.000000 33.147579
RightShoulder -1.271095 -13.548694 -0.297656
RightArm 16.014514 -13.756673 48.436504
RightForeArm -173.017480 -0.000000 30.857094
RightHand 0.191887 -0.000000 3.942611
RightHandThumb1 -24.326973 -0.000000 -32.862282
LeftUpLeg -86.925495 40.716877 -12.705928
LeftLeg 102.650415 -0.000000 -0.000000
LeftFoot -10.455840 5.767976 -29.239972
LeftToeBase 15.002542 -0.000000 -0.000000
RightUpLeg -19.556671 -22.781935 5.842245
RightLeg 29.404995 -0.000000 -0.000000
RightFoot -24.128185 -22.832921 6.671958
RightToeBase 0.987737 -0.000000 -0.000000
2072
root -5.087229 36.180524 1.401723 10.607737 43.652053 10.589812
Spine 10.108804 -0.546560 -7.116880
Head -6.330691 0.549876 3.736391
LeftShoulder 6.686259 -19.728580 9.639984
LeftArm 15.897922 -15.539956 -40.834765
LeftForeArm 6.166427 -0.000000 60.913440
LeftHand -13.817460 -0.000000 49.530974
LeftHandThumb1 -26.253704 0.000000 33.147579
RightShoulder -1.282964 -13.546542 -0.382896
RightArm 15.988655 -13.713036 48.353204
RightForeArm -173.034641 -0.000000 30.819092
RightHand 0.156661 -0.000000 3.828069
RightHandThumb1 -24.326973 -0.000000 -32.862282
LeftUpLeg -86.801800 40.708104 -12.677454
LeftLeg 102.375486 -0.000000 -0.000000
LeftFoot -10.695426 5.687918 -29.126713
LeftToeBase 15.041081 -0.000000 -0.000000
RightUpLeg -19.670654 -22.791824 5.829907
RightLeg 29.385927 -0.000000 -0.000000
RightFoot -24.127958 -22.719224 6.692994
RightToeBase 1.030586 -0.000000 -0.000000
2073
root -5.093819 36.184931 1.387945 10.702308 43.558900 10.634547
Spine 9.993392 -0.488868 -7.063901
Head -6.343203 0.534505 3.545602
LeftShoulder 6.656874 -19.698142 9.538535
LeftArm 16.060498 -15.576438 -40.882431
LeftForeArm 6.256908 -0.000000 60.641884
LeftHand -13.843153 -0.000000 49.484234
LeftHandThumb1 -26.253704 0.000000 33.147579
RightShoulder -1.306448 -13.523655 -0.475504
RightArm 15.965822 -13.715545 48.279643
RightForeArm -173.039129 0.000000 30.741230
RightHand 0.173579 -0.000000 3.854586
RightHandThumb1 -24.326973 -0.000000 -32.862282
LeftUpLeg -86.638141 40.714476 -12.645186
LeftLeg 102.163099 -0.000000 -0.000000
LeftFoot -10.880947 5.575019 -28.966743
LeftToeBase 14.858874 -0.000000 -0.000000
RightUpLeg -19.750553 -22.796549 5.818262
RightLeg 29.350840 -0.000000 -0.000000
RightFoot -24.112272 -22.622766 6.717707
RightToeBase 1.011622 -0.000000 -0.000000
2074
root -5.098005 36.189423 1.373550 10.800890 43.475345 10.685248
Spine 9.869559 -0.441790 -7.005614
Head -6.355959 0.511370 3.373591
LeftShoulder 6.669576 -19.746258 9.421788
LeftArm 16.112606 -15.577789 -40.907542
LeftForeArm 6.305773 -0.000000 60.380844
LeftHand -13.875227 -0.000000 49.389820
LeftHandThumb1 -26.253704 0.000000 33.147579
RightShoulder -1.310163 -13.527436 -0.564457
RightArm 15.898595 -13.718705 48.192199
RightForeArm -172.999257 0.000000 30.720940
RightHand 0.204217 -0.000000 3.910381
RightHandThumb1 -24.326973 -0.000000 -32.862282
LeftUpLeg -86.436018 40.702553 -12.563274
LeftLeg 102.045636 -0.000000 -0.000000
LeftFoot -11.122229 5.305921 -29.186877
LeftToeBase 15.040130 -0.000000 -0.000000
RightUpLeg -19.832296 -22.847031 5.799236
RightLeg 29.325016 -0.000000 -0.000000
RightFoot -24.098630 -22.479099 6.733074
RightToeBase 0.997315 -0.000000 -0.000000
2075
root -5.102287 36.194683 1.359643 10.909449 43.399171 10.729624
Spine 9.721595 -0.419283 -6.940539
Head -6.342463 0.523209 3.164973
LeftShoulder 6.649531 -19.766010 9.306978
LeftArm 16.194389 -15.578039 -40.931843
LeftForeArm 6.352140 -0.000000 60.086240
LeftHand -13.832566 -0.000000 49.228336
LeftHandThumb1 -26.253704 0.000000 33.147579
RightShoulder -1.285883 -13.508213 -0.648903
RightArm 15.798488 -13.684032 48.126854
RightForeArm -173.029295 -0.000000 30.661377
RightHand 0.186445 -0.000000 3.731400
RightHandThumb1 -24.326973 -0.000000 -32.862282
LeftUpLeg -86.273364 40.681776 -12.524906
LeftLeg 102.005509 -0.000000 -0.000000
LeftFoot -11.265114 5.145448 -28.985792
LeftToeBase 14.922648 -0.000000 -0.000000
RightUpLeg -19.915029 -22.879679 5.788203
RightLeg 29.274312 -0.000000 -0.000000
RightFoot -24.105873 -22.339291 6.775925
RightToeBase 1.068268 -0.000000 -0.000000
2076
root -5.106012 36.199815 1.346637 11.034516 43.340800 10.771903
Spine 9.556125 -0.397397 -6.861059
Head -6.365507 0.496985 2.967565
LeftShoulder 6.620471 -19.807832 9.187696
LeftArm 16.301278 -15.537878 -40.956167
LeftForeArm 6.409723 -0.000000 59.741051
LeftHand -13.795576 -0.000000 49.131304
LeftHandThumb1 -26.253704 0.000000 33.147579
RightShoulder -1.296422 -13.460891 -0.728566
RightArm 15.686012 -13.612693 48.109416
RightForeArm -173.138909 -0.000000 30.551582
RightHand 0.216555 0.000000 3.667955
RightHandThumb1 -24.326973 -0.000000 -32.862282
LeftUpLeg -86.088067 40.637351 -12.449780
LeftLeg 102.091497 -0.000000 -0.000000
LeftFoot -11.457891 4.826002 -28.933660
LeftToeBase 14.813307 -0.000000 -0.000000
RightUpLeg -20.017059 -22.925005 5.788946
RightLeg 29.222809 -0.000000 -0.000000
RightFoot -24.100973 -22.221186 6.790149
RightToeBase 1.111335 -0.000000 -0.000000
